<mxfile host="app.diagrams.net" modified="2024-03-26T08:10:26.347Z" agent="Mozilla/5.0 (Windows NT 10.0; Win64; x64) AppleWebKit/537.36 (KHTML, like Gecko) Chrome/123.0.0.0 Safari/537.36" etag="NBvsWOf_9I12BLGKs3ip" version="21.1.1" type="device">
  <diagram name="Page-1" id="XrrPhVqs9MF-Snal45Wn">
    <mxGraphModel dx="1290" dy="522" grid="1" gridSize="10" guides="1" tooltips="1" connect="1" arrows="1" fold="1" page="1" pageScale="1" pageWidth="850" pageHeight="1100" math="0" shadow="0">
      <root>
        <mxCell id="0" />
        <mxCell id="1" parent="0" />
        <mxCell id="bdxxHTVSKjtBM_T1O4ae-4" style="edgeStyle=orthogonalEdgeStyle;rounded=0;orthogonalLoop=1;jettySize=auto;html=1;" edge="1" parent="1" source="bdxxHTVSKjtBM_T1O4ae-1" target="bdxxHTVSKjtBM_T1O4ae-2">
          <mxGeometry relative="1" as="geometry" />
        </mxCell>
        <mxCell id="bdxxHTVSKjtBM_T1O4ae-1" value="Json file describing&amp;nbsp;&lt;br&gt;each app component&lt;br&gt;design/logic/position" style="rounded=1;whiteSpace=wrap;html=1;" vertex="1" parent="1">
          <mxGeometry x="40" y="80" width="120" height="60" as="geometry" />
        </mxCell>
        <mxCell id="bdxxHTVSKjtBM_T1O4ae-5" style="edgeStyle=orthogonalEdgeStyle;rounded=0;orthogonalLoop=1;jettySize=auto;html=1;entryX=0;entryY=0.5;entryDx=0;entryDy=0;" edge="1" parent="1" source="bdxxHTVSKjtBM_T1O4ae-2" target="bdxxHTVSKjtBM_T1O4ae-3">
          <mxGeometry relative="1" as="geometry" />
        </mxCell>
        <mxCell id="bdxxHTVSKjtBM_T1O4ae-2" value="python script that recieves the json file and generates an angular project from it" style="rounded=1;whiteSpace=wrap;html=1;" vertex="1" parent="1">
          <mxGeometry x="300" y="80" width="120" height="60" as="geometry" />
        </mxCell>
        <mxCell id="bdxxHTVSKjtBM_T1O4ae-3" value="angular project built from prebuilt components based on the json file" style="rounded=1;whiteSpace=wrap;html=1;" vertex="1" parent="1">
          <mxGeometry x="560" y="80" width="120" height="60" as="geometry" />
        </mxCell>
      </root>
    </mxGraphModel>
  </diagram>
</mxfile>
